<?xml version="1.0" encoding="UTF-8"?>
<!DOCTYPE svg PUBLIC "-//W3C//DTD SVG 1.1//EN" "http://www.w3.org/Graphics/SVG/1.1/DTD/svg11.dtd">
<!-- Creator: CorelDRAW (Evaluation Version) -->
<svg xmlns="http://www.w3.org/2000/svg" xml:space="preserve" width="5in" height="7.50707in" version="1.1" style="shape-rendering:geometricPrecision; text-rendering:geometricPrecision; image-rendering:optimizeQuality; fill-rule:evenodd; clip-rule:evenodd"
viewBox="0 0 3702.24 5558.6"
 xmlns:xlink="http://www.w3.org/1999/xlink"
 xmlns:xodm="http://www.corel.com/coreldraw/odm/2003">
 <defs>
  <style type="text/css">
   <![CDATA[
    .fil0 {fill:red;fill-rule:nonzero}
   ]]>
  </style>
 </defs>
 <g id="Layer_x0020_1">
  <metadata id="CorelCorpID_0Corel-Layer"/>
  <polygon class="fil0" points="3446.74,0 3488.45,0 3530.16,57.36 3540.6,88.64 3566.67,83.43 3624.03,41.72 3670.96,36.5 3691.81,62.58 3702.24,83.43 3702.24,99.08 3660.53,130.37 3644.88,146.01 3634.46,146.01 3624.03,166.86 3587.52,203.36 3514.52,250.29 3441.52,292.01 3389.38,328.51 3368.52,354.58 3326.8,511.01 3290.3,646.59 3232.94,865.6 3175.59,1048.1 3144.3,1126.32 3097.37,1230.61 3045.22,1308.82 2977.44,1376.61 2794.93,1501.76 2680.22,1569.55 2544.64,1642.55 2549.85,1741.63 2570.71,1871.98 2596.78,1934.56 2607.21,1950.2 2607.21,1976.27 2586.35,1986.7 2612.42,2132.71 2607.21,2148.35 2560.28,2148.35 2555.07,2143.14 2539.42,1929.34 2513.35,1762.48 2502.93,1668.62 2445.57,1699.9 2403.85,1731.2 2398.63,1877.2 2388.2,1924.13 2377.78,1960.63 2372.56,2017.99 2356.92,2049.27 2356.92,2127.49 2351.71,2153.56 2372.56,2190.07 2502.93,2320.43 2560.28,2398.65 2622.86,2508.14 2674.99,2643.72 2727.15,2810.58 2768.86,2961.8 2805.36,3066.09 2800.15,3092.16 2753.22,3102.59 2753.22,3253.81 2737.57,3389.38 2721.93,3478.03 2685.43,3613.61 2622.86,3796.11 2560.29,3957.76 2492.49,4114.2 2414.28,4275.84 2367.35,4354.06 2315.21,4447.92 2268.27,4520.92 2278.7,4547 2315.21,4593.93 2398.63,4640.85 2424.71,4666.93 2429.92,4698.21 2424.71,4708.64 2482.07,4713.86 2508.14,4739.93 2529,4771.21 2544.64,4776.43 2706.28,4776.43 2748,4802.5 2774.08,4854.64 2779.29,4875.5 2779.29,4985 2800.14,5063.22 2831.43,5125.79 2857.5,5157.08 2899.22,5193.58 2940.93,5240.51 2946.14,5250.94 2946.14,5297.87 2925.29,5339.59 2878.36,5381.3 2847.08,5396.94 2821,5402.16 2742.79,5402.16 2721.93,5391.73 2685.43,5344.8 2690.64,5323.94 2695.86,5318.73 2753.21,5313.52 2748,5287.44 2685.43,5230.08 2596.79,5162.3 2555.07,5157.08 2523.78,5172.72 2497.71,5167.51 2450.78,5115.37 2403.85,5099.72 2362.14,5094.51 2315.21,5078.86 2273.49,5037.15 2247.42,5016.3 2236.99,4990.22 2210.91,4979.79 2132.7,4953.72 2080.55,4948.5 2054.48,4974.58 1981.48,5031.93 1960.62,5063.22 1950.2,5131.01 1934.55,5250.95 1913.69,5329.16 1903.27,5355.23 1908.47,5370.87 1939.76,5381.31 1976.27,5423.02 1971.05,5459.52 1950.2,5485.59 1887.62,5511.67 1804.19,5548.17 1783.34,5558.6 1757.26,5553.38 1752.05,5516.89 1762.48,5469.96 1725.97,5438.67 1710.33,5443.88 1684.26,5522.1 1679.05,5527.31 1606.05,5522.1 1454.82,5506.46 1428.75,5490.81 1433.97,5449.09 1470.47,5287.45 1475.68,5256.16 1475.68,5204.02 1418.32,5146.66 1418.32,5110.16 1433.97,5068.44 1428.75,5031.94 1381.82,4995.43 1366.18,4974.58 1376.61,4896.36 1376.61,4839.01 1355.75,4807.72 1345.32,4797.29 1350.53,4771.22 1376.61,4708.65 1381.82,4687.79 1355.75,4656.5 1334.9,4640.86 1334.9,4630.43 1314.04,4620 1287.97,4588.72 1293.18,4547 1246.25,4489.64 1209.75,4437.5 1194.11,4380.14 1188.89,4343.63 1188.89,4187.21 1194.11,4155.92 1131.53,4041.2 1121.1,4009.92 1115.89,3968.19 1147.18,3905.62 1178.46,3853.48 1178.46,3811.76 1194.11,3759.62 1256.68,3629.26 1324.46,3498.89 1371.39,3420.68 1428.75,3332.04 1480.9,3253.82 1543.47,3149.53 1569.54,3086.96 1585.19,3034.82 1590.4,2956.6 1606.05,2914.88 1600.83,2867.95 1564.33,2753.23 1543.47,2643.73 1533.04,2549.87 1506.97,2466.44 1470.47,2377.79 1387.03,2195.29 1324.46,2096.21 1308.82,2091 1298.39,2117.08 1235.81,2205.72 1199.32,2257.86 1204.53,2341.3 1214.96,2445.58 1220.18,2602.02 1199.32,2612.45 1188.89,2607.23 1183.68,2456.01 1173.24,2341.3 1173.24,2294.36 1157.6,2304.8 1168.03,2372.58 1168.03,2456.01 1147.17,2450.8 1147.17,2377.79 1141.96,2315.23 1115.89,2330.87 1063.75,2383.02 1011.6,2424.73 943.81,2466.44 823.88,2523.81 677.88,2581.16 542.3,2628.09 338.94,2680.24 297.22,2695.88 286.79,2794.96 265.93,2867.95 234.64,2930.52 198.15,2987.89 182.5,3003.53 151.22,3008.74 130.36,3040.03 83.43,3081.74 67.79,3092.18 46.93,3086.96 31.29,3045.24 5.22,3024.39 -0,3003.53 26.07,2857.53 46.93,2779.31 104.29,2669.81 140.79,2612.45 182.51,2565.52 255.51,2523.81 370.22,2476.88 474.51,2440.37 625.73,2367.37 740.45,2304.8 844.73,2257.87 881.24,2216.15 938.6,2122.3 985.53,2049.29 1016.81,1986.71 1027.24,1945 1074.17,1877.22 1115.88,1814.64 1162.81,1741.64 1204.53,1658.21 1241.03,1559.14 1267.1,1475.71 1282.75,1454.85 1376.61,1439.21 1496.54,1423.57 1517.4,1418.35 1564.33,1418.33 1579.97,1423.54 1621.68,1392.25 1642.54,1355.76 1673.83,1319.25 1705.11,1256.68 1715.54,1204.53 1689.47,1178.47 1621.68,1136.75 1569.53,1095.03 1517.39,1037.67 1475.68,975.1 1444.39,881.24 1439.18,860.39 1439.18,776.96 1470.46,677.88 1501.75,625.73 1538.25,584.02 1595.61,547.52 1637.33,537.08 1772.9,537.08 1788.55,432.8 1819.83,391.08 1825.04,375.44 1809.4,344.15 1819.83,307.66 1835.47,297.22 1882.4,302.44 1913.68,323.3 1918.9,349.37 1903.26,370.23 1903.26,401.51 1918.9,417.16 1924.12,458.87 1929.33,484.94 2033.62,511.01 2096.19,537.08 2163.98,584.02 2205.69,630.94 2231.77,693.52 2242.2,787.38 2236.98,860.38 2231.77,886.45 2231.77,922.95 2247.41,954.24 2247.41,1016.81 2226.56,1074.17 2195.27,1136.75 2195.27,1188.89 2169.19,1199.31 2132.7,1209.74 2106.62,1230.6 2064.9,1251.46 2054.48,1267.11 2054.48,1308.82 2070.12,1334.89 2122.26,1371.39 2143.12,1366.18 2169.19,1340.11 2190.05,1324.46 2231.77,1314.04 2299.56,1314.04 2356.92,1319.25 2461.21,1298.39 2518.57,1298.39 2581.14,1267.11 2685.43,1220.18 2784.5,1178.47 2836.64,1152.39 2873.15,1110.68 2935.72,980.32 3003.51,808.24 3060.86,651.81 3097.37,552.73 3159.94,380.66 3196.44,234.66 3222.51,192.94 3253.8,166.87 3332.02,151.22 3368.52,130.37 3378.94,130.37 3384.16,114.72 3425.87,93.86 3436.3,93.86 3431.09,20.86 "/>
 </g>
</svg>
