<?xml version="1.0" encoding="UTF-8"?>
<!DOCTYPE svg PUBLIC "-//W3C//DTD SVG 1.1//EN" "http://www.w3.org/Graphics/SVG/1.1/DTD/svg11.dtd">
<!-- Creator: CorelDRAW (Evaluation Version) -->
<svg xmlns="http://www.w3.org/2000/svg" xml:space="preserve" width="5in" height="1.16359in" version="1.1" style="shape-rendering:geometricPrecision; text-rendering:geometricPrecision; image-rendering:optimizeQuality; fill-rule:evenodd; clip-rule:evenodd"
viewBox="0 0 4121.59 959.17"
 xmlns:xlink="http://www.w3.org/1999/xlink"
 xmlns:xodm="http://www.corel.com/coreldraw/odm/2003">
 <defs>
  <style type="text/css">
   <![CDATA[
    .fil0 {fill:red;fill-rule:nonzero}
   ]]>
  </style>
 </defs>
 <g id="Layer_x0020_1">
  <metadata id="CorelCorpID_0Corel-Layer"/>
  <path class="fil0" d="M1641.36 1.85c-743.06,1.23 -1397.25,2.99 -1454.07,4.22l-103.46 2.46 -14.15 6.19c-18.1,8.44 -37.22,28.31 -48.87,50.37 -10.9,21.09 -15.87,37.7 -19.35,66.23 -2.25,18.38 -1.97,24.57 1.23,36.96 9.93,39.21 41.18,71.46 83.85,87.33 14.64,5.45 19.61,5.94 105.91,7.43 67.24,0.97 91.06,2.25 93.26,4.71 1.49,1.49 4.71,11.42 7.22,21.58 6.45,27.57 27.77,90.81 36.47,108.65 16.13,32.74 55.82,65.75 103.46,85.84l23.82 10.15 581.76 1.49c610.81,1.49 610.55,1.49 630.16,12.18 10.9,5.71 33.22,23.83 43.9,35.47 31.74,34.5 36.22,81.88 12.93,140.41 -8.7,21.84 -24.83,50.37 -34.24,60.56 -16.61,18.1 -48.12,25.31 -125.52,29.28 -30.02,1.23 -63.5,3.96 -74.4,5.94 -45.18,7.96 -81.62,35.99 -101.74,78.62 -11.42,24.31 -31.02,78.88 -31.02,86.36 0,3.96 5.23,4.48 70.23,5.94 38.46,0.74 257.02,2.46 485.5,3.96 228.49,1.23 512.32,3.2 630.9,3.96 213.87,1.71 215.09,1.71 215.09,-3.2 0,-2.72 -4.97,-15.38 -10.9,-28.31 -5.94,-12.93 -16.61,-38.93 -23.83,-58.05 -7.16,-19.12 -15.12,-38.72 -17.63,-43.69 -9.67,-19.35 -36.96,-35.73 -72.92,-43.43 -16.13,-3.74 -32.74,-4.48 -90.53,-4.71 -66.23,0 -71.46,-0.48 -81.88,-5.23 -27.29,-12.67 -46.89,-35.99 -70.23,-82.14 -16.61,-33.76 -17.63,-36.21 -18.58,-56.08 -1.97,-36.96 11.9,-66.75 45.66,-98.23 25.54,-24.08 48.4,-38.18 65.01,-40.21 7.96,-0.97 265.46,-2.46 572.35,-3.48 361.49,-0.97 566.38,-2.25 581.76,-3.96 26.54,-2.99 54.59,-11.42 70.23,-21.32 18.86,-11.65 51.11,-38.19 59.76,-48.61 18.38,-22.32 36.96,-65.27 52.6,-121.57 8.17,-28.52 4.97,-26.8 57.53,-33.22 34.24,-4.22 38.72,-3.96 89.79,4.22 17.84,3 46.89,0.26 69.7,-6.45 56.56,-16.61 88.3,-61.79 82.85,-117.61 -6.68,-70.72 -45.89,-115.63 -119.06,-136.67l-19.86 -5.71 -494.95 -0.48c-272.18,0 -1102.79,0.74 -1845.8,1.71l0 0.05 0.05 0.09z"/>
 </g>
</svg>
