<?xml version="1.0" encoding="UTF-8"?>
<!DOCTYPE svg PUBLIC "-//W3C//DTD SVG 1.1//EN" "http://www.w3.org/Graphics/SVG/1.1/DTD/svg11.dtd">
<!-- Creator: CorelDRAW (Evaluation Version) -->
<svg xmlns="http://www.w3.org/2000/svg" xml:space="preserve" width="5in" height="5.00556in" version="1.1" style="shape-rendering:geometricPrecision; text-rendering:geometricPrecision; image-rendering:optimizeQuality; fill-rule:evenodd; clip-rule:evenodd"
viewBox="0 0 15286.03 15303.02"
 xmlns:xlink="http://www.w3.org/1999/xlink"
 xmlns:xodm="http://www.corel.com/coreldraw/odm/2003">
 <defs>
  <style type="text/css">
   <![CDATA[
    .fil0 {fill:red;fill-rule:nonzero}
    .fil1 {fill:red;fill-rule:nonzero}
    .fil2 {fill:red;fill-rule:nonzero}
   ]]>
  </style>
 </defs>
 <g id="Layer_x0020_1">
  <metadata id="CorelCorpID_0Corel-Layer"/>
  <g id="_2499152037520">
   <path class="fil0" d="M34.01 0l15081.98 0 136.03 136.03 34 68 0 323.06 -17.01 731.14 -51.01 102.02 -85.01 68.02 -34.01 17.01 -1003.2 17.01 -17.01 7855.55 986.2 -0.01 136.03 68.02 68 102.02 0 1071.21 -34 85.02 -102.02 102.02 -102.02 17.01 -7192.43 17 272.06 272.06 136.02 119.03 357.07 357.07 136.03 119.03 255.05 255.05 136.03 119.03 289.05 289.05 34 17.01 0 34 68.02 34.01 425.08 425.08 136.03 119.01 340.06 340.07 136.03 119.03 272.06 272.06 136.02 119.01 289.05 289.06 34.01 17 0 34.01 68.02 34 357.07 357.07 136.02 119.03 238.05 238.05 34 68 0 153.04 -68.02 119.03 -119.01 85.01 -153.03 0 -238.05 -204.05 -272.04 -272.04 -136.03 -119.03 -357.07 -357.07 -136.03 -119.03 -357.07 -357.08 -136.02 -119.01 -289.06 -289.06 -136.02 -119.03 -272.06 -272.04 -136.03 -119.03 -255.05 -255.05 -136.02 -119.03 -459.1 -459.09 -136.02 -119.03 -238.05 -238.05 -136.02 -119.03 -238.05 -238.04 -51.01 -34 -17 3740.73 -68.02 102.03 -119.03 85.01 -153.03 0 0 -34.01 -68.02 -34 -102.02 -85.02 -17.01 -68 0 -3706.74 -68.02 51.01 -34 0.01 -34 68.02 -136.03 136.02 -136.02 119.03 -357.08 357.07 -136.02 119.03 -289.06 289.05 -34 0 0 34 -136.02 119.03 -255.05 255.05 -136.03 119.03 -357.07 357.07 -136.03 119.03 -289.05 289.06 -136.03 119.03 -323.05 323.05 -136.03 119.03 -272.06 272.06 -34 0 0 34.01 -136.03 119.03 -306.06 306.06 -136.02 119.03 -119.03 85.01 -153.03 0 -136.03 -119.03 -51.01 -119.03 17.01 -119.03 68.02 -102.02 357.07 -357.07 136.02 -119.03 306.06 -306.06 34.01 0 17.01 -51.01 136.02 -119.03 306.07 -306.06 136.02 -119.03 289.05 -289.05 136.03 -119.03 289.05 -289.05 34.01 0 17.01 -51.02 136.02 -119.01 306.06 -306.07 34.01 0 0 -34 136.02 -119.03 289.06 -289.05 136.02 -119.03 255.05 -255.05 34.01 0 17 -51.01 136.03 -119.03 323.06 -323.06 136.02 -119.03 85.02 -85.01 -6716.33 -17.01 -119.03 -51.01 -68.02 -85.01 -51.01 -102.03 0 -952.19 68.02 -153.03 102.02 -85.01 51.01 -17.01 986.2 0 0 -7872.56 -1003.21 0.01 -85.01 -51.01 -68.02 -85.02 -51.01 -85.01 0 -476.09 17.01 -187.04 17 -51.01 -34 0 0 -476.09 34.01 0 0 -34zm510.1 510.1l-17.01 34.01 17.01 374.07 153.03 17 14044.78 0 17.01 -34 0 -357.07 -17.01 -17.01 -14197.81 -17.01zm1207.24 935.19l-17 34 0 7838.56 11817.33 -0.01 0 -7872.56 -11800.33 0.01zm-1207.24 8399.65l0 391.08 14197.81 0 17.01 -204.04 0 -187.04 -14214.82 0z"/>
   <polygon class="fil1" points="9402.86,4148.82 10355.05,4148.82 10627.1,4165.83 10729.12,4233.83 10797.14,4352.86 10797.14,6716.33 10695.12,6852.35 10627.1,6886.37 10440.07,6886.36 10355.05,6835.35 10287.04,6733.33 10270.03,6665.31 10270.03,5118 10236.03,5118.02 10117,5254.04 8008.59,7362.45 7855.55,7464.48 7719.53,7464.47 7566.5,7362.45 5968.18,5764.13 5951.18,5730.13 5883.16,5747.13 4471.89,7158.41 4318.86,7243.42 4165.82,7226.42 4029.79,7107.4 4012.79,7073.39 4012.79,6886.36 4131.81,6733.32 5713.12,5152.01 5849.16,5066.98 5968.18,5067.01 6121.21,5152.02 7770.54,6801.34 7838.56,6767.33 9793.94,4811.95 9912.97,4709.93 8297.65,4692.92 8195.63,4658.92 8076.61,4522.88 8059.6,4369.85 8110.61,4267.84 8229.64,4165.82 "/>
   <polygon class="fil2" points="34.01,9470.87 51.01,9470.87 34.01,10559.08 -0,10525.08 -0,9572.89 "/>
   <polygon class="fil2" points="34.01,0 204.04,0 68.02,136.03 51.01,170.04 34,510.1 -0,510.1 -0,34 34.01,34 "/>
  </g>
 </g>
</svg>
