<?xml version="1.0" encoding="UTF-8"?>
<!DOCTYPE svg PUBLIC "-//W3C//DTD SVG 1.1//EN" "http://www.w3.org/Graphics/SVG/1.1/DTD/svg11.dtd">
<!-- Creator: CorelDRAW (Evaluation Version) -->
<svg xmlns="http://www.w3.org/2000/svg" xml:space="preserve" width="5in" height="5.02717in" version="1.1" style="shape-rendering:geometricPrecision; text-rendering:geometricPrecision; image-rendering:optimizeQuality; fill-rule:evenodd; clip-rule:evenodd"
viewBox="0 0 4903.84 4930.49"
 xmlns:xlink="http://www.w3.org/1999/xlink"
 xmlns:xodm="http://www.corel.com/coreldraw/odm/2003">
 <defs>
  <style type="text/css">
   <![CDATA[
    .fil0 {fill:red;fill-rule:nonzero}
   ]]>
  </style>
 </defs>
 <g id="Layer_x0020_1">
  <metadata id="CorelCorpID_0Corel-Layer"/>
  <g id="puisi.svg">
   <path class="fil0" d="M995.79 0l2774.16 0 70.26 2.42 58.15 7.27 50.88 12.11 50.88 16.96 48.46 21.81 43.61 24.23 38.77 26.65 24.23 19.38 24.23 21.8 19.38 16.96 31.5 33.92 24.23 31.5 24.23 36.35 24.23 41.19 24.23 55.72 14.54 43.61 14.54 60.57 4.85 33.92 2.42 33.92 2.42 1136.31 77.53 -31.5 60.57 -19.38 60.57 -14.54 48.46 -7.27 82.38 0 41.19 7.27 38.77 14.54 26.65 14.54 21.8 16.96 26.65 26.65 16.96 24.23 16.96 33.92 12.12 38.77 4.84 24.23 2.42 43.61 -2.42 46.03 -9.69 58.15 -16.96 65.42 -21.8 60.57 -21.81 50.88 -29.07 60.57 -26.65 53.3 -33.92 58.15 -31.5 53.3 -31.5 48.46 -31.5 46.03 -19.38 29.08 -19.38 26.65 -26.65 36.34 -29.07 38.77 -31.5 41.19 -26.65 33.92 -33.92 41.19 -26.65 31.5 -21.8 26.65 -29.08 31.5 -16.96 21.81 -2.42 1792.9 -4.85 46.03 -12.11 46.03 -14.54 36.34 -21.8 41.19 -21.81 29.08 -21.8 24.23 -12.11 12.12 -26.65 24.23 -36.35 24.23 -46.03 21.8 -36.35 12.11 -31.5 7.27 -50.88 4.85 -2878.34 0 -48.46 -4.85 -46.03 -12.11 -36.34 -14.54 -41.19 -21.81 -31.5 -24.23 -36.34 -33.92 -26.65 -31.5 -26.65 -43.61 -16.96 -36.34 -12.11 -38.77 -7.27 -36.34 -2.42 -21.8 0 -2560.95 -535.45 0 -41.19 -4.85 -43.61 -12.11 -36.34 -16.96 -29.08 -16.96 -24.23 -19.38 -24.23 -21.8 -21.8 -26.65 -16.96 -24.23 -21.81 -41.19 -12.11 -36.34 -7.27 -36.34 -2.42 -29.08 0 -1296.22 4.85 -48.46 9.69 -48.46 14.54 -48.46 19.38 -46.03 21.81 -41.19 24.23 -36.35 19.38 -24.23 26.65 -31.5 24.23 -24.23 33.92 -26.65 33.92 -24.23 38.76 -21.8 46.03 -19.38 50.88 -14.54 41.19 -7.27 24.23 -2.42 562.11 -2.42 0 0zm-218.05 118.72l14.54 16.96 21.8 21.8 21.8 26.65 24.23 33.92 19.38 33.92 19.38 38.77 19.38 58.15 9.69 50.88 4.85 53.31 2.42 4147.91 4.85 36.35 16.96 46.03 21.8 36.35 29.08 31.5 19.38 16.96 36.35 21.8 38.76 14.54 41.19 7.27 2892.87 -0 41.19 -7.27 38.76 -14.53 36.34 -21.81 36.35 -33.92 21.8 -29.08 19.38 -38.76 12.11 -43.61 2.42 -21.8 0 -1664.49 -9.69 4.85 -9.69 9.69 0 4.85 -9.69 4.84 -46.03 46.03 -19.38 16.96 -41.19 38.76 -24.23 21.8 -19.38 16.96 -67.84 58.15 -41.19 33.92 -60.57 48.46 -31.5 24.23 -67.84 50.88 -96.91 67.84 -38.77 24.23 -41.19 26.65 -82.38 48.46 -65.41 33.92 -38.76 19.38 -50.88 21.81 -60.57 21.8 -58.15 16.96 -60.57 12.12 -41.19 4.84 -46.03 0 -36.35 -4.85 -38.76 -9.69 -33.92 -14.54 -12.11 4.85 -14.54 16.96 -12.11 12.12 -12.11 9.69 -14.54 16.96 -14.54 12.11 -14.54 16.96 -14.54 12.11 -14.54 16.96 -14.53 12.11 -14.54 16.96 -14.54 12.12 -14.54 16.96 -14.54 12.11 -14.54 16.96 -14.54 12.11 -14.54 16.96 -14.53 12.11 -16.96 19.38 -36.34 36.34 -14.54 12.11 -14.54 16.96 -14.54 12.12 -14.53 16.96 -14.54 12.11 -14.54 16.96 -14.54 12.11 -14.54 16.96 -14.54 12.11 -14.54 16.96 -14.54 12.12 -14.53 16.96 -14.54 12.11 -14.54 16.96 -14.54 12.11 -14.54 16.96 -14.54 12.11 -16.96 19.38 -36.34 36.34 -19.38 16.96 -19.38 12.11 -9.69 2.42 -24.22 -0.01 -24.23 -12.11 -14.54 -19.38 -4.85 -12.12 0 -24.23 7.27 -16.96 14.54 -19.38 612.98 -612.98 -16.96 -48.46 -7.27 -31.5 -2.42 -19.38 0 -67.84 9.69 -65.42 16.96 -65.41 24.23 -70.26 31.5 -72.68 26.65 -55.73 21.8 -38.76 14.54 -29.08 19.38 -31.5 19.38 -33.92 33.92 -53.3 19.38 -29.08 31.5 -46.03 29.08 -41.19 33.92 -46.03 33.92 -43.61 26.65 -33.92 31.5 -38.77 21.81 -26.65 26.65 -31.5 21.8 -24.23 21.8 -26.65 33.92 -36.35 4.85 -9.69 4.85 -0 16.96 -19.38 4.85 -9.69 7.27 -2.42 16.96 -19.38 21.81 -21.81 0 -4.84 4.84 0 0 -4.85 4.85 0 0 -4.85 4.85 0 16.96 -19.38 31.5 -31.5 4.85 -2.42 0 -4.84 9.69 -4.85 43.61 -43.61 19.38 -16.96 16.96 -16.96 19.38 -16.96 31.5 -29.08 26.65 -21.8 24.23 -21.81 26.65 -21.8 31.5 -26.65 33.92 -26.65 36.34 -29.08 46.03 -33.92 38.77 -29.07 55.73 -38.77 58.15 -38.76 53.3 -33.92 58.15 -33.92 26.65 -14.54 2.42 -4.85 0 -1184.77 -4.84 -50.88 -7.27 -36.34 -14.54 -48.46 -21.8 -50.88 -26.65 -46.03 -21.8 -29.08 -21.81 -24.23 -16.96 -19.38 -26.65 -24.23 -43.61 -31.5 -38.76 -21.8 -41.19 -19.38 -43.61 -14.53 -43.61 -9.69 -36.35 -4.85 -3057.62 -2.42 0 -0zm-344.04 2.42l-41.19 7.27 -38.76 12.11 -43.61 19.38 -36.34 24.23 -26.65 21.8 -14.54 12.11 -33.92 38.77 -24.23 36.34 -19.38 33.92 -19.38 50.88 -12.11 50.88 -4.85 55.73 0 1276.84 4.85 33.92 12.11 33.92 14.54 24.23 21.8 26.65 26.65 21.81 38.76 19.38 29.08 7.27 16.96 2.42 530.6 0 2.42 -16.96 0 -1441.59 -2.42 -46.03 -7.27 -41.19 -12.12 -38.77 -19.38 -43.61 -21.81 -36.34 -19.38 -24.23 -26.65 -29.08 -36.34 -29.07 -38.76 -24.23 -36.34 -16.96 -46.03 -14.54 -41.19 -7.27 -75.11 0zm4176.98 1596.65l-48.46 9.69 -55.73 16.96 -60.57 24.23 -72.68 36.35 -62.99 33.92 -48.46 29.08 -58.15 36.34 -89.64 60.57 -87.22 62.99 -50.88 38.76 -33.92 26.65 -60.57 48.46 -26.65 21.8 -62.99 53.31 -36.34 31.5 -58.15 53.3 -7.27 4.85 0 4.84 -9.69 4.85 -87.22 87.22 0 4.85 -4.84 0 -16.96 19.38 -24.23 24.23 -16.96 19.38 -33.92 36.34 -29.08 33.92 -24.23 26.65 -21.8 26.65 -26.65 31.5 -16.96 21.8 -29.08 36.35 -50.88 67.84 -24.23 33.92 -16.96 24.23 -53.3 79.95 -31.5 50.88 -24.23 41.19 -38.76 70.26 -19.38 41.19 -16.96 33.92 -26.65 65.41 -16.96 50.88 -14.54 58.15 -4.84 29.07 -2.42 26.65 0 31.5 2.42 16.96 12.11 -7.27 1114.51 -1114.51 21.8 -12.11 19.38 -2.42 21.8 4.85 14.54 9.69 12.11 14.54 7.27 16.96 0 24.23 -12.11 24.23 -21.81 24.23 -1005.48 1005.48 -14.54 12.11 -16.96 19.38 -12.11 9.69 -14.54 16.96 -14.54 12.11 -12.11 14.54 -12.12 12.11 16.96 4.85 60.57 0 55.72 -9.69 58.15 -16.96 58.15 -21.81 72.68 -33.92 60.57 -31.5 53.3 -31.5 50.88 -31.5 79.96 -53.3 41.19 -29.08 43.61 -31.5 50.88 -38.76 67.84 -53.31 41.19 -33.92 63 -53.3 26.65 -24.23 26.65 -21.8 38.76 -36.34 7.27 -4.85 0 -4.85 9.69 -4.85 26.65 -26.65 7.27 -4.85 0 -4.85 9.69 -4.84 58.15 -58.15 16.96 -19.38 38.77 -38.76 16.96 -19.38 29.08 -31.5 21.8 -26.65 26.65 -29.08 19.38 -24.23 21.8 -26.65 29.08 -36.34 24.23 -31.5 26.65 -33.92 33.92 -46.03 24.23 -33.92 29.08 -41.19 26.65 -38.77 24.23 -36.34 29.08 -46.03 36.34 -60.57 24.23 -43.61 33.92 -65.41 24.23 -50.88 21.8 -58.15 14.54 -46.03 9.69 -48.46 2.42 -21.8 0 -38.77 -4.85 -29.08 -12.12 -29.07 -14.53 -21.81 -21.81 -19.38 -31.5 -14.54 -19.38 -4.85 -72.69 -0.01z"/>
   <polygon class="fil0" points="1584.55,678.39 3801.45,678.39 3823.25,685.66 3842.64,702.62 3852.33,722.01 3854.75,738.97 3849.9,760.77 3835.37,780.15 3825.67,789.85 3801.45,797.11 1579.7,797.11 1555.47,785 1540.93,765.62 1533.67,748.66 1533.67,729.27 1545.77,700.2 1562.74,685.66 "/>
   <polygon class="fil0" points="1589.39,1931 3314.45,1931 3343.53,1935.85 3365.33,1950.39 3377.45,1967.35 3382.29,1986.73 3379.87,2008.53 3365.33,2032.76 3353.22,2042.46 3331.41,2049.72 3161.81,2052.15 1836.52,2052.15 1579.7,2049.72 1562.74,2042.46 1548.2,2030.34 1536.09,2010.96 1533.67,2001.27 1533.67,1981.88 1540.93,1962.5 1557.9,1943.12 1577.28,1933.43 "/>
   <polygon class="fil0" points="1579.7,1305.91 2984.95,1305.91 3004.33,1313.18 3016.44,1322.87 3030.98,1347.1 3033.4,1373.75 3023.71,1395.56 3009.18,1412.52 2999.48,1419.78 2975.26,1424.63 1589.39,1424.63 1570.01,1419.78 1555.47,1410.09 1540.93,1393.13 1533.67,1373.75 1533.67,1354.37 1543.36,1332.56 1555.47,1318.02 "/>
   <polygon class="fil0" points="1584.55,2558.52 2771.74,2558.52 2793.54,2565.79 2812.93,2582.75 2822.61,2602.13 2825.04,2609.4 2825.04,2626.36 2815.35,2650.59 2803.23,2665.13 2783.85,2674.82 2771.74,2677.24 1582.12,2677.24 1562.74,2669.97 1548.2,2657.86 1533.67,2628.78 1533.67,2609.4 1540.93,2590.02 1550.62,2575.48 1572.43,2560.94 "/>
   <polygon class="fil0" points="1577.28,3186.04 2422.85,3186.04 2444.65,3195.73 2461.61,3215.11 2468.88,3232.07 2468.88,3256.3 2459.19,3278.1 2449.5,3290.22 2432.54,3299.91 2408.31,3304.76 1589.39,3304.76 1565.16,3297.49 1545.78,3280.53 1536.09,3263.57 1533.67,3253.87 1533.67,3234.49 1543.36,3212.69 1555.47,3198.15 "/>
   <polygon class="fil0" points="1589.39,3811.13 2170.87,3811.13 2202.37,3815.97 2216.91,3825.67 2233.87,3845.05 2238.71,3859.59 2238.71,3883.81 2226.6,3908.04 2207.21,3925 2187.83,3929.85 2010.96,3932.27 1766.26,3932.27 1579.7,3929.85 1555.47,3917.73 1540.93,3898.35 1533.67,3881.39 1533.67,3862.01 1540.93,3842.63 1557.9,3823.24 1577.28,3813.55 "/>
  </g>
 </g>
</svg>
