<?xml version="1.0" encoding="UTF-8"?>
<!DOCTYPE svg PUBLIC "-//W3C//DTD SVG 1.1//EN" "http://www.w3.org/Graphics/SVG/1.1/DTD/svg11.dtd">
<!-- Creator: CorelDRAW (Evaluation Version) -->
<svg xmlns="http://www.w3.org/2000/svg" xml:space="preserve" width="5in" height="4.28222in" version="1.1" style="shape-rendering:geometricPrecision; text-rendering:geometricPrecision; image-rendering:optimizeQuality; fill-rule:evenodd; clip-rule:evenodd"
viewBox="0 0 2970.45 2544.03"
 xmlns:xlink="http://www.w3.org/1999/xlink"
 xmlns:xodm="http://www.corel.com/coreldraw/odm/2003">
 <defs>
  <style type="text/css">
   <![CDATA[
    .fil0 {fill:red;fill-rule:nonzero}
   ]]>
  </style>
 </defs>
 <g id="Layer_x0020_1">
  <metadata id="CorelCorpID_0Corel-Layer"/>
  <g id="teater.svg">
   <path class="fil0" d="M2058.14 0l72.52 0 66.72 1.45 94.28 4.35 85.57 7.25 65.27 7.25 79.77 11.6 63.82 11.6 71.07 15.96 59.47 15.95 37.71 11.6 46.41 15.95 40.61 15.95 34.81 15.96 34.81 17.4 23.2 14.5 15.96 14.5 13.05 20.31 7.25 15.95 0 954.37 -2.9 1.45 -7.25 58.02 -8.7 52.21 -11.6 52.21 -15.95 56.57 -20.31 58.02 -17.4 42.06 -14.5 33.36 -11.6 23.21 -17.41 33.36 -20.3 34.81 -15.96 26.11 -24.66 36.26 -14.5 20.31 -14.5 18.85 -17.4 21.76 -13.05 15.96 -14.5 15.95 -10.15 11.6 -17.41 18.85 -40.61 40.61 -2.9 0 0 2.9 -11.6 10.15 -14.5 13.05 -15.95 13.05 -23.21 18.85 -29.01 21.76 -26.11 18.86 -24.66 15.95 -30.46 18.85 -30.46 17.41 -33.36 17.4 -23.21 11.6 -37.71 17.41 -52.21 20.3 -52.22 17.41 -53.66 14.5 -37.71 8.7 -30.46 5.8 -23.2 0 -31.91 -5.8 -49.31 -11.6 -44.96 -13.05 -11.6 -2.9 -2.9 10.15 -29.01 58.02 -17.4 30.46 -17.41 29.01 -23.21 34.81 -15.95 23.21 -18.85 24.66 -15.96 20.31 -15.95 18.85 -17.4 20.31 -21.76 23.2 -44.96 44.96 -2.9 0 0 2.9 -11.6 10.15 -14.5 13.05 -15.95 13.05 -23.21 18.86 -17.41 13.05 -20.3 14.5 -17.41 8.7 -24.66 7.25 -53.66 11.6 -63.82 10.15 -58.02 5.8 -59.47 2.9 -29.01 -0 -65.27 -2.9 -44.96 -4.35 -50.76 -7.25 -58.02 -11.6 -46.41 -11.6 -52.21 -15.96 -47.86 -17.4 -44.96 -18.86 -43.51 -20.3 -36.26 -18.86 -27.56 -15.95 -33.36 -20.3 -17.41 -11.6 -27.56 -18.86 -30.46 -23.2 -23.21 -18.86 -15.95 -13.05 -20.31 -17.4 -13.05 -13.06 -2.9 -1.45 0 -2.9 -5.8 -2.9 -43.51 -43.51 -10.15 -11.6 -15.96 -17.41 -13.05 -15.95 -15.95 -18.85 -17.4 -23.21 -20.31 -27.56 -27.56 -42.06 -17.41 -29.01 -17.4 -30.46 -24.66 -47.86 -18.86 -40.61 -27.56 -58.02 -18.85 -40.61 -46.41 -98.63 -18.85 -40.61 -26.11 -55.11 -21.75 -46.41 -18.86 -40.61 -26.11 -55.12 -18.85 -40.61 -24.66 -52.21 -18.86 -40.61 -24.66 -52.21 -13.05 -29.01 -10.15 -21.76 -20.31 -42.06 -10.15 -23.2 -1.45 -5.8 0 -43.51 2.9 -0 1.45 -8.7 13.05 -23.21 20.31 -27.56 13.05 -15.95 10.15 -13.05 2.9 -0 2.9 -5.8 23.2 -24.66 13.06 -14.5 24.66 -24.66 11.6 -10.15 21.76 -20.31 21.76 -18.85 20.31 -17.41 20.3 -15.95 15.96 -13.05 30.46 -23.21 15.96 -11.6 26.11 -18.85 40.61 -27.56 29.01 -18.86 31.91 -20.3 18.85 -11.6 36.26 -21.76 40.61 -23.21 52.22 -29.01 20.3 -10.15 27.56 -14.5 55.12 -27.56 40.61 -18.86 47.86 -21.75 43.51 -18.86 59.47 -24.66 49.31 -18.85 52.21 -18.86 55.11 -18.85 62.37 -18.85 40.61 -11.6 71.07 -17.41 39.16 -8.7 1.45 -184.2 4.35 -17.4 11.6 -23.21 11.6 -13.05 15.95 -11.6 24.66 -14.5 31.91 -15.95 40.61 -17.41 42.06 -15.95 52.22 -17.41 62.37 -17.4 68.17 -15.95 66.72 -13.06 65.27 -10.15 79.77 -10.15 81.22 -7.25 73.97 -4.35 98.63 -2.9 0 0zm-5.8 176.95l-58.02 1.45 -82.67 4.35 -71.07 5.8 -75.42 8.7 -66.72 10.15 -53.67 10.15 -59.47 13.05 -43.51 11.6 -56.56 17.4 -50.76 18.86 -27.56 11.6 -2.9 2.9 0 95.73 92.83 1.45 26.11 2.9 18.85 5.8 18.86 11.6 7.25 5.8 14.5 18.85 20.31 42.06 17.4 37.71 24.66 52.21 40.61 87.02 10.15 18.85 24.66 13.05 20.3 17.41 15.96 10.15 21.75 7.25 10.15 1.45 21.76 -0 21.76 -5.8 20.31 -11.6 20.3 -17.41 14.5 -8.7 17.41 -5.8 7.25 -1.45 29.01 0 18.85 5.8 15.95 8.7 14.5 13.05 10.15 13.05 8.7 18.86 2.9 11.6 0 31.91 -7.25 21.76 -8.7 14.5 -15.95 17.4 -23.21 18.86 -27.56 17.4 -33.36 15.95 -21.76 7.25 -33.36 7.25 -17.41 2.9 -17.4 1.45 -2.9 2.9 5.8 14.5 24.66 52.21 11.6 26.11 10.15 20.31 18.85 40.61 23.21 49.31 21.76 46.41 37.71 81.22 10.15 -1.45 37.71 -8.7 39.16 -5.8 39.16 -2.9 31.91 0 40.61 2.9 46.41 7.25 40.61 10.15 42.06 14.5 34.81 15.95 30.46 15.95 27.56 17.41 20.31 14.5 20.31 15.95 15.95 14.5 11.6 10.15 10.15 10.15 10.15 14.5 7.25 15.95 2.9 10.15 1.45 18.86 -2.9 21.76 -7.25 17.4 -8.7 14.5 -7.25 8.7 -11.6 8.7 -17.41 8.7 -13.05 4.35 -8.7 1.45 -23.21 0 -17.41 -4.35 -17.4 -8.7 -14.5 -11.6 -5.8 -2.9 0 -2.9 -11.6 -10.15 -21.75 -17.41 -24.66 -15.95 -36.26 -18.85 -31.91 -11.6 -27.56 -7.25 -23.21 -4.35 -39.16 -2.9 -17.4 -0 -34.81 2.9 -37.71 7.25 -2.9 1.45 7.25 37.71 10.15 59.47 5.8 49.31 2.9 34.81 1.45 36.26 0 49.31 -1.45 40.61 -5.8 63.82 -8.7 56.57 -10.15 50.76 -4.35 17.4 0 8.7 11.6 4.35 43.51 11.6 30.46 7.25 13.05 -1.45 36.26 -8.7 44.96 -13.05 42.06 -14.5 29.01 -11.6 29.01 -13.05 36.26 -17.41 34.81 -18.85 26.11 -15.95 34.81 -23.21 26.11 -18.85 20.31 -15.96 15.95 -13.05 21.76 -18.85 21.76 -20.31 36.26 -36.26 10.15 -11.6 13.05 -14.5 13.05 -15.95 15.95 -20.3 20.31 -27.56 14.5 -21.75 17.4 -27.56 14.5 -24.66 14.5 -26.11 15.96 -33.36 14.5 -31.91 20.3 -53.66 14.5 -47.86 10.15 -40.61 10.15 -50.76 5.8 -44.96 4.35 -63.82 0 -819.48 -30.46 -13.05 -50.77 -18.85 -46.41 -14.5 -60.92 -15.95 -59.47 -13.05 -65.27 -11.6 -72.52 -10.15 -84.12 -8.7 -88.47 -5.8 -37.71 -1.45 -65.27 -1.45 -79.77 -0 -0 0zm-635.28 388.71l-55.11 4.35 -53.67 7.25 -56.56 10.15 -62.37 14.5 -65.27 17.4 -65.27 20.31 -55.11 18.85 -50.77 18.85 -43.51 17.41 -52.21 21.76 -43.51 18.85 -21.76 10.15 -37.71 17.41 -92.83 46.41 -31.91 17.4 -37.71 20.31 -34.81 20.3 -31.91 18.86 -30.46 18.85 -37.71 24.66 -21.76 14.5 -33.36 23.21 -27.56 20.3 -37.71 29.01 -15.95 13.05 -18.85 15.95 -20.31 17.41 -18.85 17.4 -4.35 2.9 0 2.9 -5.8 2.9 -31.91 31.91 0 2.9 -2.9 0 -10.15 11.6 -14.5 15.95 -1.45 5.8 15.96 36.26 17.4 36.26 18.85 40.61 24.66 52.21 18.86 40.61 69.62 147.94 11.6 26.11 10.15 20.31 18.86 40.61 46.41 98.63 21.75 46.41 18.86 40.61 24.66 52.21 15.95 33.36 14.5 30.46 17.41 31.91 20.3 33.36 27.56 40.61 18.86 24.66 18.85 23.21 13.05 15.95 20.31 21.76 2.9 4.35 2.9 0 0 2.9 2.9 0 2.9 5.8 17.41 17.41 2.9 -0 0 2.9 11.6 10.15 20.31 18.86 15.95 13.05 18.85 15.95 27.56 20.31 18.86 13.05 21.76 14.5 29.01 17.4 26.11 14.5 33.36 17.41 44.96 20.3 37.71 14.5 52.21 17.41 44.96 11.6 42.06 8.7 56.56 8.7 52.22 4.35 50.76 1.45 44.96 -1.45 50.77 -4.35 42.06 -5.8 46.41 -8.7 18.85 -5.8 20.31 -14.5 20.31 -17.4 18.85 -15.95 21.76 -20.31 42.06 -42.06 10.15 -11.6 17.41 -20.31 11.6 -14.5 14.5 -18.85 18.85 -26.11 14.5 -21.76 11.6 -18.85 14.5 -24.66 8.7 -14.5 11.6 -23.21 18.85 -39.16 18.85 -46.41 17.41 -52.21 11.6 -40.61 11.6 -53.66 8.7 -58.02 4.35 -52.21 1.45 -55.12 -1.45 -43.51 -4.35 -50.76 -7.25 -49.31 -10.15 -49.31 -10.15 -39.16 -13.05 -42.06 -17.41 -46.41 -15.95 -36.26 -20.31 -43.51 -23.2 -49.31 -20.31 -43.51 -24.66 -52.21 -18.85 -40.61 -23.21 -49.31 -24.66 -52.21 -18.86 -40.61 -24.66 -52.21 -23.2 -49.31 -18.86 -40.61 -69.62 -147.94 -23.21 -50.77 -2.9 -4.35 -31.91 0z"/>
   <polygon class="fil0" points="1493.93,1557.74 1525.84,1557.74 1544.69,1563.55 1560.65,1573.7 1575.15,1586.75 1586.75,1602.71 1594.01,1618.66 1596.91,1630.26 1596.91,1659.27 1592.56,1676.68 1575.15,1718.74 1560.65,1747.75 1550.49,1763.7 1543.24,1776.76 1533.09,1791.26 1517.13,1813.02 1504.08,1828.97 1491.03,1843.47 1489.58,1846.37 1486.68,1846.37 1483.78,1852.18 1466.37,1869.58 1454.77,1879.73 1435.91,1895.69 1418.51,1908.74 1399.65,1921.8 1369.2,1940.65 1338.74,1956.61 1301.03,1972.56 1261.86,1985.61 1227.05,1994.32 1184.99,2001.57 1158.89,2004.47 1137.13,2005.92 1100.87,2005.92 1055.91,2001.57 1021.1,1995.77 986.29,1987.06 958.73,1978.36 941.32,1971.11 926.82,1960.96 910.86,1945 902.16,1930.5 894.91,1908.74 893.46,1900.04 893.46,1886.99 897.81,1865.23 903.61,1852.17 913.77,1836.22 928.27,1821.71 948.58,1810.11 963.08,1805.76 968.88,1804.31 993.54,1804.31 1013.84,1808.66 1041.4,1817.36 1071.86,1823.17 1095.07,1826.07 1150.18,1826.07 1180.64,1821.72 1211.1,1814.47 1241.56,1804.31 1273.47,1789.81 1295.22,1776.75 1312.63,1765.15 1335.84,1746.3 1350.34,1733.24 1361.94,1721.64 1373.55,1707.13 1386.6,1689.73 1402.55,1665.07 1418.51,1631.71 1430.11,1604.16 1441.71,1588.2 1447.52,1580.95 1464.92,1567.9 1480.88,1560.64 "/>
   <polygon class="fil0" points="1380.8,1041.39 1428.66,1041.39 1457.67,1045.75 1480.88,1051.55 1498.28,1057.35 1517.14,1067.5 1534.54,1083.46 1547.6,1103.76 1553.4,1121.17 1554.85,1129.87 1554.85,1153.08 1550.5,1169.03 1538.89,1192.24 1524.39,1208.19 1505.53,1219.8 1491.03,1225.6 1477.98,1228.5 1451.87,1228.5 1418.51,1219.8 1390.95,1219.8 1373.55,1224.15 1353.24,1234.3 1338.74,1247.35 1330.03,1257.51 1318.43,1279.27 1308.28,1299.57 1295.22,1314.07 1282.17,1324.23 1263.31,1332.93 1243.01,1337.28 1224.15,1337.28 1200.95,1331.48 1187.89,1324.23 1174.84,1314.07 1161.79,1299.57 1150.18,1276.36 1147.28,1266.21 1145.83,1244.45 1150.18,1221.25 1161.79,1193.69 1174.84,1169.03 1192.25,1144.37 1205.3,1129.87 1215.45,1118.27 1232.86,1102.31 1254.61,1086.36 1276.37,1073.3 1306.83,1058.8 1338.74,1048.65 1369.2,1042.85 "/>
   <polygon class="fil0" points="809.34,1312.62 841.24,1312.62 876.05,1316.97 909.41,1325.68 929.72,1334.38 947.13,1347.43 960.18,1361.94 970.33,1382.24 974.68,1398.2 974.68,1427.2 968.88,1446.06 960.18,1462.01 950.03,1475.07 935.52,1486.67 916.67,1495.37 900.71,1499.72 883.31,1501.18 864.45,1498.27 844.15,1492.47 820.94,1491.02 800.63,1493.92 783.23,1501.18 768.72,1509.88 762.92,1515.68 760.02,1515.68 757.12,1521.48 748.42,1533.09 736.81,1556.29 728.11,1572.25 715.06,1586.75 702,1596.9 686.05,1604.15 668.65,1608.51 641.09,1608.51 623.68,1604.16 604.83,1594 587.42,1578.05 577.27,1562.09 570.02,1546.14 567.12,1533.09 567.12,1509.88 571.47,1492.47 583.07,1463.46 597.58,1437.36 612.08,1417.05 630.93,1395.3 645.44,1380.79 665.74,1364.84 687.5,1350.33 717.96,1334.38 749.87,1322.77 783.23,1315.52 "/>
   <polygon class="fil0" points="2296.01,670.09 2325.01,670.09 2343.87,675.89 2355.47,681.69 2374.33,696.2 2388.83,707.8 2407.69,716.5 2427.99,720.85 2449.75,720.85 2471.51,715.05 2490.36,704.9 2509.22,688.94 2525.17,678.79 2544.03,671.54 2551.28,670.09 2578.84,670.09 2596.24,674.44 2613.65,683.14 2629.6,696.2 2642.66,713.6 2651.36,733.91 2654.26,748.41 2654.26,765.82 2649.91,786.12 2638.31,809.33 2625.25,823.83 2613.65,835.44 2586.09,855.74 2555.63,873.15 2526.62,884.75 2496.16,893.45 2459.9,899.25 2413.49,899.25 2378.68,893.45 2348.22,884.75 2317.76,871.7 2294.55,858.64 2269.9,841.24 2252.49,825.28 2239.44,812.23 2227.84,791.92 2222.03,773.07 2222.03,744.06 2229.29,720.85 2237.99,706.35 2251.04,691.85 2264.1,681.69 2278.6,674.44 "/>
  </g>
 </g>
</svg>
