<?xml version="1.0" encoding="UTF-8"?>
<!DOCTYPE svg PUBLIC "-//W3C//DTD SVG 1.1//EN" "http://www.w3.org/Graphics/SVG/1.1/DTD/svg11.dtd">
<!-- Creator: CorelDRAW (Evaluation Version) -->
<svg xmlns="http://www.w3.org/2000/svg" xml:space="preserve" width="5in" height="2.08121in" version="1.1" style="shape-rendering:geometricPrecision; text-rendering:geometricPrecision; image-rendering:optimizeQuality; fill-rule:evenodd; clip-rule:evenodd"
viewBox="0 0 3098.37 1289.67"
 xmlns:xlink="http://www.w3.org/1999/xlink"
 xmlns:xodm="http://www.corel.com/coreldraw/odm/2003">
 <defs>
  <style type="text/css">
   <![CDATA[
    .fil0 {fill:red;fill-rule:nonzero}
   ]]>
  </style>
 </defs>
 <g id="Layer_x0020_1">
  <metadata id="CorelCorpID_0Corel-Layer"/>
  <g id="wonderland.svg">
   <path class="fil0" d="M1441.58 110.77l7.91 3.16 3.16 3.17 31.65 0 22.15 11.08 23.74 1.58 9.5 4.75 3.16 4.75 -1.58 6.33 -3.16 3.16 -14.24 4.75 0 3.16 4.75 1.58 6.33 9.5 3.16 14.24 3.16 4.75 0 7.91 -4.75 0 -12.66 -4.75 4.75 15.82 -7.91 3.16 -7.91 0 12.66 7.91 -1.58 7.91 11.08 9.5 0 3.16 -3.16 0 4.75 7.91 14.24 18.99 4.75 7.91 0 11.08 -7.91 14.24 -3.16 0 0 9.5 1.58 4.75 3.16 0 0 3.16 6.33 3.16 22.15 18.99 14.24 11.08 12.66 11.08 14.24 12.66 1.58 9.5 -11.08 9.49 -20.57 4.75 -3.16 1.58 -14.24 -1.58 -18.99 -9.49 -3.16 6.33 -14.24 7.91 -6.33 15.82 -7.91 30.07 -3.16 18.99 0 12.66 11.08 4.75 -3.16 14.24 -1.58 14.24 4.75 4.75 -14.24 4.75 -12.66 4.75 -9.49 14.24 -15.83 11.08 -7.91 -1.58 -4.75 9.49 -7.91 11.08 -4.75 11.08 -7.91 3.16 4.75 9.49 -1.58 11.08 -3.16 7.91 11.08 3.16 3.16 4.75 -1.58 14.24 -4.75 14.24 -4.75 4.75 -4.75 -0 0 11.08 -6.33 12.66 -4.75 1.58 0 7.91 3.16 3.16 -1.58 14.24 11.08 3.16 -1.58 18.99 -1.58 3.16 -3.16 0 -3.16 17.41 -9.5 12.66 -3.16 4.75 -6.33 -1.58 -3.17 -4.75 -3.16 -17.41 0 -11.08 -36.39 18.99 -42.73 22.15 -12.66 3.16 -4.75 -4.75 -3.17 -11.08 0 -30.06 -3.16 -7.91 1.58 -3.16 -9.5 3.16 -4.75 -3.16 0 -3.17 -14.24 -1.58 -7.91 6.33 -6.33 3.16 -12.66 0 -3.16 -1.58 0 -3.16 -3.17 0 0 -14.24 -17.41 1.58 -11.08 -7.91 -1.58 -4.75 -3.16 -1.58 -3.16 7.91 -11.08 11.08 -9.5 6.33 -12.66 -0 -11.08 -3.16 -9.49 0 -14.24 14.24 -9.5 1.58 -6.33 -6.33 -3.17 -36.4 0 -3.16 -14.24 1.58 -6.33 1.58 0 -4.75 -18.99 9.5 -11.08 1.58 -14.24 -3.16 -12.66 0 0 -7.91 -7.91 0 -7.91 6.33 -7.91 -3.16 -3.16 -4.75 -4.75 -50.64 -3.16 -20.57 -9.5 -14.24 1.58 -9.5 6.33 -12.66 0 -11.08 -6.33 -15.82 -4.75 -1.58 -18.99 14.24 -6.33 -1.58 -4.75 -14.24 4.75 -9.5 1.58 -4.75 -12.66 -3.16 -4.75 -6.33 1.58 -6.33 4.75 -7.91 -12.66 -6.33 -3.16 -4.75 -1.58 -15.82 4.75 -11.08 0 -18.99 -12.66 -17.41 -4.75 -11.08 -3.16 -15.82 0 -11.08 4.75 -11.08 3.16 -15.82 1.58 -3.16 3.16 -20.57 12.66 -17.41 9.49 -18.99 12.66 -9.49 11.08 -9.5 4.75 0 -1.58 9.49 -3.16 7.91 1.58 11.08 6.33 14.24 7.91 12.66 20.57 17.41 3.16 6.33 3.17 -0 7.91 9.5 12.66 6.33 17.4 -4.75 14.24 -6.33 23.74 0 11.08 1.58 12.66 0 15.82 -7.91 4.75 -7.91 6.33 -14.24 3.17 0 0 -3.16 12.66 -6.33 12.66 -3.16 20.57 0 9.49 6.33 11.08 9.5 14.24 4.75 7.91 1.58 11.08 0 17.41 -12.66 15.82 1.58 6.33 -4.75 14.24 0 15.82 -30.07 0 -7.91 -1.58 -1.58 0 -12.66 9.5 -12.66 11.08 -7.91 3.16 0 -1.58 -9.5 -3.16 -9.49 0 -9.5 6.33 -11.08 14.24 -4.75 3.16 -7.91 3.16 -12.66 3.16 -6.33 0 -37.98 6.33 -20.57 6.33 -7.91 4.75 -7.91 1.58 -1.58 7.91 0 6.33 3.17 11.08 -1.58 7.91 -1.58 9.49 4.75 3.16 -7.91zm71.21 68.04l6.33 4.75 6.33 -1.58 -3.16 -3.16 -9.5 0z"/>
   <polygon class="fil0" points="12.66,15.83 15.83,15.83 15.83,18.99 33.23,18.99 50.64,28.49 64.88,41.14 75.96,47.47 83.87,49.06 99.69,49.06 113.94,45.89 128.18,45.89 144,53.8 159.82,47.47 169.32,53.8 188.31,71.21 199.39,87.03 205.72,99.69 215.21,107.6 219.96,113.93 221.54,136.09 246.86,151.91 254.77,162.99 276.93,174.07 299.08,193.06 319.65,212.05 337.06,227.87 340.22,243.69 349.72,242.11 359.21,256.35 370.29,276.92 379.78,284.84 384.53,284.84 389.28,276.93 392.44,273.76 401.94,273.76 414.6,281.67 422.51,288 425.67,295.91 436.75,289.58 449.41,289.58 458.9,297.49 460.49,300.66 460.49,310.15 455.74,318.07 455.74,322.81 468.4,329.14 469.98,322.81 485.8,327.56 506.37,333.89 509.54,340.22 511.12,365.54 520.62,362.38 528.53,363.96 544.35,371.87 555.43,384.53 553.85,392.44 547.52,394.02 547.52,397.19 557.01,394.02 563.34,405.1 563.34,409.85 574.42,413.01 590.24,428.84 599.74,443.08 599.74,455.74 591.83,460.49 582.33,462.07 582.33,466.81 591.83,468.4 593.41,474.73 580.75,492.13 576,496.88 572.84,496.88 574.42,509.54 580.75,517.45 593.41,525.36 612.4,525.36 631.39,530.11 636.13,534.86 647.21,583.91 653.54,599.73 669.37,607.65 669.37,625.05 694.68,626.64 718.42,631.38 720,640.88 723.17,655.12 731.08,670.95 745.32,680.44 746.9,682.02 746.9,693.1 742.16,705.76 732.66,724.75 734.25,735.82 737.41,740.57 735.83,754.81 729.5,775.39 731.08,784.88 732.66,788.05 732.66,803.87 727.91,840.26 724.75,882.99 720,898.81 713.67,901.98 702.6,897.23 689.94,886.15 686.77,886.15 686.77,881.41 683.61,881.41 682.02,889.32 675.69,894.07 664.62,894.07 648.79,884.57 640.88,878.24 645.63,892.48 645.63,903.56 644.05,906.72 634.55,906.72 628.22,901.98 628.22,898.81 621.89,895.65 621.89,892.48 618.73,892.48 602.9,871.91 591.83,859.25 580.75,841.85 572.84,833.94 553.85,821.28 538.02,807.03 525.36,795.96 506.37,778.55 495.3,769.05 485.8,756.4 474.72,732.66 466.81,724.75 444.66,705.76 433.58,691.52 422.51,670.95 408.26,653.54 398.77,642.46 392.44,628.22 387.69,596.57 375.03,571.25 360.79,545.94 359.21,544.35 359.21,530.11 352.88,517.45 330.72,490.55 321.23,474.73 314.9,457.32 292.74,441.5 288,441.5 288,438.33 280.09,438.33 275.34,430.42 272.18,411.43 253.19,356.04 250.02,344.97 250.02,337.06 246.86,337.06 248.44,333.89 248.44,324.4 243.69,319.65 243.69,316.49 237.36,313.32 208.88,292.75 180.4,278.51 174.07,269.01 170.9,245.28 164.57,237.36 151.91,226.29 134.51,197.8 125.01,181.98 117.1,174.07 94.95,167.74 80.7,155.08 69.63,142.42 45.89,118.68 34.81,106.02 17.41,85.45 4.75,63.3 -0,50.64 -0,36.4 6.33,25.32 12.66,18.99 "/>
   <polygon class="fil0" points="2519.21,474.73 2539.78,476.31 2555.6,482.64 2576.17,496.88 2587.25,503.21 2620.48,506.38 2636.31,511.12 2639.47,514.29 2637.89,520.62 2634.72,528.53 2645.8,550.68 2645.8,564.93 2639.47,580.75 2644.22,580.75 2645.8,576 2648.97,577.58 2644.22,591.83 2636.31,604.48 2637.89,620.31 2645.8,645.63 2647.38,648.79 2653.71,639.3 2663.21,637.72 2669.54,644.04 2672.7,670.95 2680.62,683.6 2686.95,697.85 2702.77,704.18 2713.85,702.59 2728.09,691.52 2745.5,674.11 2754.99,659.87 2764.48,648.79 2767.65,648.79 2770.81,639.3 2777.14,623.47 2783.47,617.14 2799.3,615.56 2819.87,612.4 2830.94,606.07 2830.94,596.57 2823.03,598.15 2805.63,598.16 2792.97,601.32 2777.14,601.32 2753.41,594.99 2734.41,588.66 2720.17,585.49 2718.59,583.91 2720.17,572.84 2721.76,569.67 2745.49,571.25 2797.71,577.58 2811.95,582.33 2821.45,588.66 2826.2,594.99 2835.69,582.33 2853.1,571.25 2872.09,563.34 2887.91,563.34 2908.48,571.25 2940.13,587.08 2962.28,601.32 3012.92,626.64 3031.91,626.64 3068.31,636.13 3085.71,644.04 3098.37,648.79 3098.37,666.2 3090.46,797.54 3085.71,911.47 3082.55,932.04 3073.05,957.36 3073.05,966.86 3080.97,976.35 3077.8,1025.41 3068.31,1139.34 3066.72,1152 3060.39,1153.58 3042.99,1136.18 3025.58,1110.86 2998.68,1083.96 2995.51,1076.04 2971.78,1079.21 2967.03,1080.79 2954.37,1080.79 2948.04,1077.63 2941.71,1079.21 2932.22,1083.96 2930.63,1095.04 2927.47,1096.62 2913.23,1096.62 2905.32,1091.87 2881.58,1096.62 2846.77,1098.2 2834.11,1099.78 2835.69,1091.87 2849.93,1057.05 2864.18,1033.32 2875.25,1022.24 2891.08,1014.33 2900.57,1011.16 2919.56,1009.58 2916.39,1003.25 2922.73,995.34 2916.39,992.18 2908.48,987.43 2908.48,977.93 2910.07,974.77 2913.23,974.77 2911.65,962.11 2916.39,960.53 2906.9,949.45 2898.99,932.04 2892.66,909.89 2894.24,901.98 2887.91,894.07 2880,889.32 2878.42,887.74 2878.42,875.08 2859.43,856.09 2834.11,843.43 2813.54,830.77 2792.97,827.6 2762.9,811.78 2742.33,802.29 2715.43,799.12 2698.02,797.54 2679.03,788.04 2666.37,778.55 2660.04,770.64 2656.88,765.89 2647.38,759.56 2639.47,757.98 2636.31,764.31 2622.07,759.56 2620.48,753.23 2623.65,748.48 2615.74,746.9 2610.99,743.74 2610.99,740.57 2592,731.08 2585.67,737.4 2580.92,754.81 2576.17,762.72 2592,773.8 2595.16,781.71 2587.25,783.3 2571.43,775.39 2566.68,770.64 2566.68,765.89 2555.6,770.64 2544.53,769.05 2536.61,761.14 2530.28,745.32 2528.7,735.82 2531.86,727.91 2541.36,724.75 2535.03,710.51 2525.54,704.18 2508.13,685.19 2503.38,682.02 2487.56,677.27 2484.39,674.11 2484.39,664.62 2495.47,655.12 2504.96,651.96 2520.79,653.54 2527.12,655.12 2541.36,655.12 2555.6,639.3 2563.52,634.55 2574.59,634.55 2584.09,640.88 2604.66,644.04 2598.33,637.72 2598.33,631.38 2610.99,631.38 2609.4,623.47 2582.5,626.64 2558.77,631.38 2547.69,631.38 2531.87,629.8 2525.54,626.64 2508.13,628.22 2492.31,618.73 2485.98,610.81 2479.65,596.57 2481.23,582.33 2478.06,582.33 2473.32,577.58 2454.33,571.25 2451.16,568.09 2441.67,569.67 2429.01,569.67 2416.35,560.18 2408.44,555.43 2402.11,547.52 2397.36,539.6 2397.36,528.53 2386.28,525.36 2381.54,520.62 2383.12,512.7 2386.28,511.12 2406.86,509.54 2411.6,504.79 2416.35,506.37 2417.93,517.45 2425.84,520.62 2430.59,525.36 2435.34,523.78 2432.17,517.45 2433.76,511.12 2460.66,504.79 2476.48,498.46 2501.8,481.06 2511.3,476.31 "/>
   <polygon class="fil0" points="2028.66,318.07 2034.99,318.07 2036.57,332.31 2041.32,338.64 2031.82,349.72 2019.16,375.03 2004.92,392.44 1992.26,411.43 1984.35,420.92 1963.78,430.42 1946.37,435.16 1917.89,436.75 1902.07,433.58 1886.24,424.09 1875.17,420.93 1843.52,420.92 1819.78,424.09 1807.12,424.09 1794.46,419.34 1783.38,419.34 1769.14,424.09 1751.74,424.09 1726.42,417.76 1713.76,419.34 1705.85,427.25 1696.35,441.5 1690.02,466.81 1690.02,482.64 1696.35,507.96 1701.1,515.87 1716.92,520.61 1721.67,526.95 1729.58,549.1 1742.24,553.85 1754.9,555.43 1758.06,547.52 1767.56,531.69 1781.8,515.87 1794.46,506.38 1799.21,507.96 1799.21,515.87 1803.95,519.03 1818.2,519.03 1826.11,511.12 1835.6,504.79 1853.01,503.21 1860.92,501.63 1872,495.3 1884.66,492.13 1902.07,492.13 1914.73,496.88 1921.05,504.79 1919.47,517.45 1911.56,530.11 1905.23,536.44 1898.9,534.86 1887.82,522.2 1873.58,531.69 1864.08,542.77 1845.1,568.09 1829.27,577.58 1811.87,587.08 1800.79,599.73 1794.46,602.9 1784.97,602.9 1794.46,613.98 1807.12,625.06 1816.61,642.46 1822.94,656.71 1830.86,664.62 1837.19,672.53 1840.35,685.19 1848.26,696.26 1846.68,701.01 1840.35,702.6 1840.35,713.67 1837.19,718.42 1837.19,732.66 1840.35,732.66 1848.26,740.57 1857.76,743.74 1859.34,748.48 1854.59,756.4 1864.09,754.81 1865.67,756.4 1873.58,756.4 1879.91,751.65 1889.41,753.23 1897.32,762.73 1895.73,773.8 1889.41,778.55 1875.16,778.55 1872,786.46 1859.34,797.54 1854.59,797.54 1854.59,794.37 1843.52,794.37 1821.36,799.12 1816.61,822.86 1808.7,827.61 1794.46,826.02 1778.64,819.69 1770.73,810.2 1770.73,795.96 1778.64,764.31 1772.31,761.14 1754.9,748.48 1743.82,737.4 1737.49,727.91 1735.91,721.58 1735.91,707.34 1745.41,689.93 1746.99,683.6 1746.99,667.78 1745.41,659.87 1731.16,659.87 1715.34,666.2 1705.85,674.11 1704.26,677.27 1704.26,689.93 1710.59,704.18 1709.01,738.99 1707.43,753.23 1705.85,808.62 1697.93,838.68 1701.1,857.67 1705.85,875.08 1709.01,895.65 1709.01,916.22 1705.85,941.54 1702.68,949.45 1696.35,946.28 1691.6,919.38 1693.19,903.56 1697.93,892.48 1701.1,887.74 1699.52,879.82 1685.27,881.41 1666.28,884.57 1656.79,890.9 1647.29,889.32 1637.8,882.99 1626.72,884.57 1626.72,867.16 1625.14,851.34 1631.47,837.1 1639.38,813.36 1644.13,786.46 1644.13,757.98 1637.8,738.99 1639.38,723.16 1636.22,721.58 1614.06,726.33 1607.73,731.08 1602.99,731.08 1595.08,707.34 1593.49,699.43 1593.49,688.35 1596.66,680.44 1593.49,661.45 1599.82,650.37 1602.99,650.37 1602.99,647.21 1606.15,647.21 1606.15,644.05 1615.65,636.13 1623.56,612.4 1629.89,599.74 1631.47,593.41 1633.06,553.85 1639.39,536.44 1650.46,517.45 1659.96,500.05 1661.54,498.46 1661.54,468.4 1652.05,452.57 1653.63,447.83 1667.87,447.82 1667.87,425.67 1682.11,400.35 1693.19,384.53 1696.35,371.87 1702.68,373.45 1710.59,381.36 1716.92,382.95 1723.25,378.2 1726.42,378.2 1729.58,370.29 1734.33,354.46 1739.08,348.13 1748.57,346.55 1773.89,351.3 1783.38,356.04 1789.71,363.96 1822.94,368.7 1853.01,375.03 1872,381.36 1878.33,379.78 1886.24,376.62 1903.65,376.62 1924.22,379.78 1951.12,379.78 1963.78,373.45 1974.86,360.79 1982.77,357.63 1984.35,348.13 1998.59,337.06 2001.76,337.06 2004.92,329.14 2008.09,322.81 2014.42,319.65 "/>
   <polygon class="fil0" points="731.08,898.81 738.99,900.4 742.16,901.98 769.05,905.14 780.13,909.89 788.05,911.47 795.96,898.81 803.87,900.4 821.28,906.73 829.19,911.47 837.1,920.97 852.93,920.97 860.84,924.13 871.91,928.88 881.41,924.13 890.9,932.04 908.31,963.69 916.22,968.44 927.3,965.27 941.54,966.86 947.87,970.02 970.02,970.02 974.77,971.6 1003.25,971.6 1017.5,976.35 1023.83,976.35 1036.49,951.03 1042.81,941.54 1050.73,936.79 1060.22,938.37 1071.3,947.87 1076.04,954.2 1076.04,957.36 1083.96,958.95 1098.2,952.61 1106.11,955.78 1112.44,963.69 1131.43,968.44 1134.6,971.6 1155.17,973.19 1167.82,970.02 1172.57,970.02 1172.57,979.51 1188.4,973.19 1197.89,971.6 1259.6,971.6 1270.68,977.93 1272.26,987.43 1261.19,993.76 1256.44,1000.09 1237.45,1003.25 1221.63,1008 1208.97,1008 1201.06,1006.42 1185.23,1008 1185.23,1025.41 1201.06,1034.9 1215.3,1038.06 1239.03,1034.9 1269.1,1033.32 1284.92,1038.06 1294.42,1049.14 1294.42,1064.97 1302.33,1068.13 1318.15,1069.71 1335.56,1063.38 1349.8,1064.97 1365.63,1074.46 1375.12,1087.12 1375.12,1095.03 1367.21,1102.94 1351.39,1112.44 1340.31,1121.93 1332.39,1129.84 1324.48,1131.43 1322.9,1123.52 1326.07,1114.02 1318.15,1106.11 1294.42,1093.45 1288.09,1091.87 1291.25,1101.36 1299.16,1117.18 1297.58,1125.1 1286.5,1126.68 1278.59,1121.93 1275.43,1115.6 1248.53,1112.44 1235.87,1106.11 1212.13,1091.87 1207.38,1090.28 1196.31,1090.29 1178.9,1098.2 1156.75,1098.2 1123.52,1091.87 1095.03,1090.29 1082.37,1087.12 1052.31,1083.96 1020.66,1074.46 976.35,1057.05 944.7,1047.56 935.21,1047.56 933.63,1049.14 919.39,1049.14 909.89,1044.4 901.98,1041.23 887.74,1050.73 868.75,1050.72 852.93,1045.98 824.44,1031.74 813.36,1028.57 773.8,1025.41 753.23,1019.08 746.9,1011.16 748.48,1001.67 754.81,989.01 743.74,987.43 729.5,981.1 705.76,977.93 689.93,979.51 675.69,974.77 669.36,971.6 666.2,955.78 669.36,949.45 675.69,944.7 682.02,946.29 682.02,960.53 693.1,960.53 696.26,951.03 701.01,938.37 708.92,938.37 708.92,941.54 712.09,941.54 712.09,928.88 716.84,916.22 723.17,905.14 726.33,905.14 727.91,900.4 "/>
   <path class="fil0" d="M2213.8 281.67l11.08 1.58 1.58 6.33 -9.49 18.99 9.49 12.66 1.58 6.33 0 15.82 -1.58 6.33 14.24 -14.24 14.24 -6.33 15.82 -1.58 1.58 1.58 1.58 33.23 -4.75 11.08 -20.57 15.82 -4.75 1.58 1.58 4.75 20.57 11.08 11.08 14.24 6.33 11.08 -1.58 4.75 -12.66 -0 -26.9 -6.33 -20.57 -7.91 0 14.24 6.33 36.39 6.33 18.99 11.08 17.41 6.33 6.33 -3.16 6.33 -9.5 0 -15.82 -9.5 -4.75 -4.75 -1.58 9.5 -11.08 6.33 -9.5 -3.16 -7.91 -1.58 -20.57 -1.58 -6.33 -9.5 -1.58 -11.08 -4.75 -4.75 0 -11.08 4.75 -7.91 4.75 -4.75 9.5 1.58 7.91 4.75 6.33 -3.16 6.33 -1.58 0 -14.24 1.58 -22.15 -15.82 -28.49 -9.5 -14.24 1.58 -6.33 4.75 -4.75 3.16 -1.58 -3.16 -9.49 0 -14.24 9.49 -30.07 9.5 -25.32 9.5 -12.66 7.91 -4.75zm11.08 71.21m-1.58 1.58l-9.5 14.24 6.33 -3.16 4.75 -6.33 -1.58 -4.75zm-11.08 14.24l-11.08 9.5 3.16 6.33 6.33 1.58 3.16 -14.24 -1.58 -3.17zm-30.07 14.24l1.58 9.5 4.75 0 -1.58 -6.33 -1.58 -3.16 -3.16 0zm14.24 91.78m1.58 1.58m1.58 1.58l3.16 15.82 0 4.75 7.91 4.75 4.75 0 1.58 3.16 0 -6.33 -14.24 -20.57 -3.16 -1.58zm-26.9 17.41m4.75 3.17l0 7.91 3.16 -1.58 -1.58 -6.33 -1.58 0z"/>
   <path class="fil0" d="M1846.68 1064.97l7.91 1.58 6.33 7.91 0 3.16 7.91 0 1.58 -1.58 25.32 1.58 6.33 1.58 4.75 -4.75 11.08 -1.58 7.91 4.75 1.58 1.58 7.91 0 6.33 -6.33 6.33 -1.58 3.17 7.91 4.75 -11.08 42.73 1.58 7.91 4.75 3.16 9.5 -4.75 7.91 -7.91 4.75 -11.08 3.16 -14.24 1.58 -25.32 0 -1.58 -3.16 -4.75 7.91 -6.33 3.16 -6.33 -6.33 -11.08 -3.16 -3.16 -7.91 -7.91 6.33 -1.58 14.24 -17.41 -1.58 -11.08 -1.58 -4.75 -9.49 -6.33 3.16 -6.33 11.08 -6.33 -1.58 0 -4.75 -3.16 0 -3.16 6.33 -11.08 4.75 -34.81 4.75 -26.9 7.91 -15.82 0 -1.58 -1.58 -6.33 4.75 -18.99 3.16 -11.08 -1.58 -11.08 -4.75 -9.5 -1.58 -37.98 -1.58 -11.08 4.75 -6.33 -6.33 -1.58 -4.75 -3.16 4.75 -12.66 -1.58 -9.5 -7.91 -3.16 -4.75 0 -11.08 6.33 -11.08 4.75 -1.58 11.08 12.66 0 3.16 6.33 -1.58 7.91 -7.91 30.07 -15.82 4.75 -1.58 18.99 0 31.65 9.5 15.82 9.5 1.58 1.58 9.5 0 4.75 -3.16 11.08 0 7.91 -3.16 11.08 1.58 14.24 9.5 7.91 0 11.08 -12.66 7.91 -4.75 4.75 -15.82 4.75 -1.58 0 -3.17zm101.28 20.57m-319.65 25.32l0 4.75 0 -4.75z"/>
   <path class="fil0" d="M2318.24 661.45l14.24 1.58 15.82 7.91 3.16 3.16 11.08 1.58 12.66 0 11.08 6.33 7.91 7.91 3.16 4.75 1.58 11.08 11.08 12.66 3.16 14.24 -4.75 14.24 -3.16 3.16 -9.5 -1.58 -25.32 -14.24 -22.15 -12.66 -9.49 -9.5 -9.5 -1.58 -11.08 7.91 -14.24 0 -11.08 -3.16 -12.66 -0 -3.16 -1.58 -3.16 -4.75 -11.08 3.17 6.33 11.08 0 7.91 -1.58 1.58 -12.66 -1.58 -15.82 3.16 -6.33 4.75 -15.82 3.16 -9.5 1.58 -1.58 -1.58 0 -9.49 3.16 -9.5 -3.16 -3.16 -3.16 -9.5 0 -4.75 -3.16 0 1.58 4.75 -3.16 3.16 -11.08 0 -4.75 -6.33 1.58 -7.91 3.17 0 0 -3.16 6.33 -1.58 3.16 -6.33 7.91 -7.91 11.08 -14.24 3.16 0 0 9.5 22.15 -9.5 15.82 -1.58 33.23 0 1.58 4.75 9.5 0 11.08 -6.33 6.33 -1.58zm-110.77 26.9m-3.17 1.58l-1.58 4.75 3.16 0 -1.58 -4.75zm20.57 9.5l-7.91 14.24 0 6.33 4.75 1.58 11.08 -4.75 7.91 -1.58 -4.75 -6.33 -3.16 0 -3.16 -7.91 -4.75 -1.58z"/>
   <path class="fil0" d="M1511.21 1064.97l14.24 0 9.5 6.33 6.33 9.49 7.91 -1.58 4.75 -3.16 7.91 1.58 4.75 6.33 6.33 -3.16 14.24 -1.58 1.58 -7.91 3.16 -3.16 7.91 -0 1.58 1.58 0 9.5 -6.33 6.33 1.58 15.82 6.33 4.75 1.58 6.33 -7.91 7.91 -3.16 1.58 -11.08 -0 6.33 7.91 -6.33 3.16 -11.08 -3.16 -23.74 1.58 -6.33 -6.33 -28.48 12.66 -14.24 1.58 -17.41 6.33 -17.41 1.58 -4.75 3.17 -14.24 -1.58 -9.5 -6.33 -4.75 -4.75 1.58 -12.66 4.75 -22.15 11.08 -9.5 20.57 -6.33 17.41 0 -1.58 -7.91 4.75 -9.5 11.08 -1.58 7.91 -1.58 3.16 -1.58zm-12.66 18.99l-1.58 1.58 0 7.91 14.24 18.99 11.08 -1.58 6.33 -1.58 0 -3.16 -14.24 -9.49 -7.91 -7.91 -7.91 -4.75z"/>
   <polygon class="fil0" points="1982.77,1126.68 1992.26,1126.68 2008.09,1139.34 2006.51,1150.42 1998.59,1175.73 1989.1,1186.81 1982.77,1196.31 1968.53,1212.13 1957.45,1223.21 1946.37,1229.54 1925.8,1234.29 1906.81,1243.78 1902.06,1245.36 1873.58,1246.95 1873.58,1253.28 1878.33,1262.77 1876.74,1269.1 1862.5,1275.43 1838.77,1288.09 1832.44,1289.67 1827.69,1280.18 1830.85,1270.68 1846.68,1259.6 1864.08,1248.53 1865.67,1242.2 1865.67,1232.7 1872,1223.21 1878.33,1220.05 1881.49,1226.37 1887.82,1223.21 1884.66,1215.3 1886.24,1208.97 1898.9,1186.82 1909.97,1169.41 1913.14,1164.66 1924.22,1166.24 1933.71,1170.99 1941.62,1169.41 1944.79,1152 1952.7,1147.25 1966.94,1142.51 1976.44,1131.43 "/>
   <polygon class="fil0" points="729.5,563.34 738.99,563.34 746.9,569.67 753.23,583.91 756.4,599.73 757.98,620.31 762.73,632.97 770.64,637.72 800.7,645.63 800.7,651.96 786.46,664.62 784.88,667.78 795.96,669.36 803.87,678.86 802.29,683.6 791.21,686.77 788.04,693.1 786.46,694.68 775.38,693.1 750.06,680.44 735.82,670.95 735.82,667.78 732.66,667.78 729.5,658.29 727.91,640.88 721.58,625.06 715.25,618.73 691.52,618.73 682.02,612.4 682.02,609.23 677.27,607.65 678.86,599.73 689.94,591.82 694.68,572.84 697.85,568.09 708.92,568.09 720,574.42 723.17,568.09 "/>
   <polygon class="fil0" points="1623.56,1159.91 1653.63,1159.91 1663.12,1166.24 1674.2,1180.48 1691.61,1189.98 1697.93,1196.31 1697.93,1199.47 1701.1,1199.47 1707.43,1212.13 1707.43,1221.63 1701.1,1231.12 1691.61,1237.45 1674.2,1240.61 1658.38,1234.28 1639.38,1213.71 1621.98,1202.64 1601.41,1199.47 1588.75,1194.72 1579.25,1186.81 1576.09,1182.07 1577.67,1175.73 1585.59,1167.82 1591.91,1164.66 1620.4,1161.49 "/>
   <path class="fil0" d="M2648.97 862.42l7.91 4.75 6.33 9.5 1.58 6.33 -1.58 45.89 4.75 0 1.58 3.16 -1.58 17.41 -7.91 7.91 -4.75 14.24 -7.91 1.58 -4.75 -9.5 -6.33 7.91 -7.91 6.33 -12.66 3.16 -7.91 -4.75 -3.16 -7.91 1.58 -14.24 3.16 -6.33 3.16 -36.39 7.91 -4.75 6.33 -1.58 -1.58 -11.08 -1.58 -1.58 1.58 -11.08 11.08 -4.75 1.58 -4.75 3.16 0 3.16 -6.33 4.75 -3.17zm-6.33 88.62l1.58 3.16 4.75 0 0 -3.16 -6.33 0zm3.16 3.16l-1.58 7.91 3.16 -4.75 -1.58 -3.16z"/>
   <polygon class="fil0" points="1875.16,783.3 1884.66,783.3 1887.82,786.46 1890.99,797.54 1895.73,813.36 1890.99,826.02 1886.24,827.6 1883.08,821.27 1879.91,821.28 1878.33,838.68 1889.41,849.76 1890.99,859.25 1883.08,867.17 1873.58,870.33 1867.25,882.99 1864.09,890.9 1857.76,889.32 1843.52,879.82 1838.77,868.75 1826.11,867.16 1819.78,860.83 1822.94,846.59 1827.69,837.1 1826.11,821.27 1830.86,813.36 1838.77,807.03 1851.43,799.12 1862.5,800.7 1865.67,794.37 "/>
   <polygon class="fil0" points="2110.94,682.02 2137.84,682.02 2153.67,688.35 2160,696.26 2167.91,708.92 2171.07,716.84 2169.49,726.33 2163.16,734.24 2153.67,740.57 2129.93,748.48 2120.44,746.9 2099.87,735.82 2088.79,726.33 2080.88,713.67 2077.71,701.01 2082.46,689.93 2091.95,685.19 "/>
   <polygon class="fil0" points="1978.02,574.42 1990.68,574.42 2012.83,579.17 2027.08,579.17 2030.24,576 2034.99,576 2036.57,583.91 2049.23,583.91 2057.14,585.5 2101.45,585.49 2112.53,588.66 2112.53,593.41 2099.87,599.73 2088.79,601.32 2093.54,629.8 2093.54,645.63 2088.79,647.21 2079.29,639.3 2072.97,623.47 2072.97,602.9 2052.4,602.9 2041.32,601.32 2041.32,596.57 2038.15,596.57 2036.57,601.32 2006.51,604.48 1997.01,607.65 1979.6,607.65 1971.69,599.73 1970.11,588.66 1976.44,576 "/>
   <path class="fil0" d="M2441.67 990.59l20.57 0 7.91 4.75 3.16 4.75 0 11.08 -6.33 -1.58 -4.75 -3.17 -9.5 0 -4.75 25.32 -6.33 9.5 -7.91 9.49 -3.17 0 -3.16 6.33 -9.49 12.66 -4.75 0 -3.16 7.91 -20.57 12.66 -12.66 4.75 -3.16 -1.58 3.16 -7.91 7.91 -9.5 18.99 -7.91 6.33 0 -7.91 -11.08 0 -14.24 7.91 -14.24 0 -3.16 -15.82 6.33 -6.33 -1.58 -1.58 -4.75 6.33 -6.33 12.66 -6.33 6.33 -1.58 7.91 3.16 4.75 -9.5 3.16 0 3.16 -6.33 11.08 -7.91zm-28.48 30.07l-3.16 4.75 3.16 1.58 1.58 -6.33 -1.58 0z"/>
   <polygon class="fil0" points="854.51,642.46 875.08,644.05 887.74,650.37 895.65,659.87 897.23,670.95 890.9,688.35 881.41,701.01 873.49,702.6 865.58,697.85 851.34,697.85 843.43,691.52 840.27,685.19 840.27,677.27 827.6,677.27 824.44,672.53 829.19,667.78 841.85,659.87 848.18,645.63 "/>
   <polygon class="fil0" points="1414.68,1072.88 1428.92,1074.46 1440,1082.37 1443.17,1093.45 1438.42,1104.53 1428.92,1123.52 1424.18,1134.59 1402.02,1134.59 1381.45,1131.43 1378.29,1129.85 1378.29,1126.68 1375.12,1126.68 1375.12,1117.18 1378.29,1112.44 1387.78,1114.02 1392.53,1090.29 1400.44,1080.79 1409.93,1074.46 "/>
   <polygon class="fil0" points="2362.55,449.41 2367.3,449.41 2373.63,460.49 2383.12,452.57 2395.78,449.41 2413.19,449.41 2432.17,452.57 2441.67,457.32 2446.42,462.07 2448,476.31 2441.67,484.22 2421.1,482.64 2417.93,490.55 2411.6,492.13 2397.36,496.88 2389.45,498.46 2384.7,493.71 2387.87,485.8 2387.87,481.06 2370.46,471.56 2360.97,460.48 2359.39,454.16 "/>
   <polygon class="fil0" points="158.24,335.47 169.32,337.06 181.98,348.13 191.47,359.21 200.97,375.03 200.97,397.19 194.64,409.85 191.47,413.01 181.98,411.43 174.07,398.77 169.32,389.27 156.66,376.62 139.26,346.55 137.67,337.06 155.08,337.06 "/>
   <polygon class="fil0" points="264.27,515.87 269.01,517.45 272.18,531.69 289.58,568.09 291.17,574.42 291.17,585.5 283.26,593.41 275.34,594.99 261.1,585.5 250.02,569.67 238.95,547.52 240.53,533.28 245.28,523.78 "/>
   <polygon class="fil0" points="2091.96,1028.57 2106.2,1028.57 2117.27,1034.9 2123.6,1042.81 2123.6,1047.56 2110.94,1050.72 2096.7,1061.8 2088.79,1063.39 2079.3,1061.8 2061.89,1061.8 2052.4,1066.55 2049.23,1069.71 2044.48,1069.71 2042.9,1077.63 2033.4,1088.7 2025.49,1090.29 2023.91,1083.96 2031.82,1071.3 2041.32,1068.13 2047.65,1047.56 2055.56,1036.48 2063.47,1033.32 2079.29,1033.32 "/>
   <polygon class="fil0" points="306.99,602.9 314.9,604.48 322.81,612.4 333.89,634.55 333.89,637.72 340.22,639.3 340.22,642.46 346.55,645.63 354.46,658.29 365.54,670.95 370.29,682.02 368.71,699.43 371.87,713.67 363.96,712.09 354.46,701.01 344.97,682.02 341.81,674.11 332.31,669.36 329.14,655.12 329.14,644.04 327.56,639.3 319.65,636.13 305.41,625.05 300.66,618.73 300.66,609.23 "/>
   <polygon class="fil0" points="642.46,432 648.79,433.58 656.71,443.08 656.71,452.57 675.69,468.4 680.44,477.89 677.28,481.06 663.03,479.47 647.21,476.31 650.37,487.39 645.63,501.63 639.3,506.38 626.64,503.21 620.31,492.13 621.89,481.06 632.97,477.89 636.13,457.32 632.97,449.41 629.8,446.24 629.8,438.33 632.97,435.17 "/>
   <polygon class="fil0" points="1883.08,536.44 1897.32,538.02 1914.73,544.35 1922.64,553.85 1921.05,564.93 1913.14,571.25 1905.23,571.25 1906.81,576 1909.98,576 1909.98,572.84 1917.89,571.25 1916.31,580.75 1903.65,599.74 1898.9,599.73 1902.07,583.91 1894.15,580.75 1889.41,572.84 1889.41,568.09 1878.33,579.17 1872,577.58 1870.42,574.42 1868.83,552.27 1873.58,542.77 1878.33,538.02 "/>
   <path class="fil0" d="M607.65 357.63l9.5 1.58 3.16 3.16 1.58 6.33 7.91 -7.91 11.08 -1.58 11.08 6.33 4.75 9.5 -3.16 7.91 -3.16 6.33 -1.58 9.49 -7.91 -1.58 -6.33 -12.66 -6.33 -1.58 -1.58 6.33 3.16 4.75 -1.58 6.33 -9.5 -1.58 -9.49 -6.33 0 -3.16 -9.5 -3.16 -9.5 -6.33 1.58 -6.33 6.33 -3.16 4.75 -9.5 4.75 -3.16zm11.08 14.24m-1.58 1.58m-1.58 1.58m4.75 0l1.58 7.91 4.75 -1.58 -6.33 -6.33zm-7.91 3.16l-1.58 3.16 3.17 0 -1.58 -3.16zm-3.16 3.16l0 6.33 3.16 -4.75 -3.16 -1.58z"/>
   <polygon class="fil0" points="2185.32,553.85 2204.31,553.85 2215.38,558.59 2224.88,564.93 2232.79,574.42 2232.79,583.91 2229.63,587.08 2221.72,588.66 2185.32,588.66 2175.82,579.17 2175.82,564.92 2182.15,557.01 2185.32,557.01 "/>
   <polygon class="fil0" points="2254.94,245.28 2259.69,246.86 2267.6,264.27 2267.6,280.09 2259.69,292.75 2251.78,299.08 2240.7,303.83 2234.37,302.24 2231.21,295.91 2229.62,281.67 2223.3,273.76 2226.46,264.26 2229.62,262.68 2235.95,265.85 2237.54,262.68 2240.7,262.68 2240.7,259.52 2250.2,251.61 "/>
   <polygon class="fil0" points="2368.88,576 2379.96,577.58 2384.7,580.75 2386.29,594.99 2387.87,612.4 2375.21,612.4 2367.3,613.98 2345.14,609.23 2334.06,596.57 2335.65,590.24 2348.31,583.91 "/>
   <polygon class="fil0" points="2558.77,851.34 2563.52,852.92 2560.35,867.17 2549.27,892.48 2539.78,908.31 2530.28,917.8 2525.54,916.22 2516.04,897.23 2514.46,881.41 2527.12,871.91 2535.03,873.49 2538.2,882.99 2546.11,862.42 2552.44,854.51 "/>
   <polygon class="fil0" points="52.22,226.29 61.72,229.45 74.38,238.95 82.29,246.86 96.53,257.94 104.44,265.85 102.86,273.76 96.53,278.51 88.62,276.92 75.96,265.85 52.22,253.19 42.73,242.11 44.31,235.78 49.06,227.87 "/>
   <polygon class="fil0" points="879.83,132.92 887.74,134.51 895.65,142.42 900.4,150.33 900.4,164.57 894.07,174.07 887.74,177.23 878.24,177.23 875.08,174.07 875.08,166.16 868.75,156.66 870.33,142.42 876.66,134.51 "/>
   <polygon class="fil0" points="2129.93,104.44 2137.84,107.61 2142.59,117.1 2144.18,129.76 2139.43,144 2133.1,159.82 2131.52,170.9 2125.18,170.9 2118.86,151.91 2118.86,144 2125.18,134.51 2123.6,112.35 2126.77,106.02 "/>
   <polygon class="fil0" points="221.54,447.82 237.36,447.82 234.2,449.41 242.11,462.07 243.7,466.81 243.7,482.64 240.53,496.88 234.2,501.63 223.12,500.05 219.96,495.3 221.54,484.22 226.29,473.14 224.71,462.06 221.54,455.74 "/>
   <polygon class="fil0" points="2180.57,1064.97 2204.31,1066.55 2207.47,1068.13 2207.47,1071.3 2215.38,1072.88 2215.38,1080.79 2207.47,1088.7 2188.48,1083.96 2171.08,1083.96 2167.91,1080.79 2169.49,1072.88 2177.41,1066.55 "/>
   <polygon class="fil0" points="1802.37,833.94 1808.7,835.52 1813.45,845.01 1813.45,862.42 1808.7,873.49 1802.37,871.91 1792.88,859.25 1791.3,849.76 1796.04,840.26 "/>
   <polygon class="fil0" points="2713.84,496.88 2729.67,498.46 2743.91,504.79 2747.07,511.12 2742.33,519.03 2737.58,522.2 2723.34,519.03 2713.84,507.96 2712.26,498.46 "/>
   <polygon class="fil0" points="1772.31,1242.2 1778.64,1243.78 1781.8,1245.36 1783.38,1254.86 1773.89,1262.77 1769.14,1264.35 1742.24,1264.35 1739.08,1262.77 1740.66,1256.44 1754.9,1253.27 "/>
   <polygon class="fil0" points="2044.48,167.74 2053.98,169.32 2061.89,178.82 2065.05,189.89 2063.47,202.55 2055.56,200.97 2049.23,193.06 2039.73,178.82 2036.57,175.65 2036.57,170.9 "/>
   <polygon class="fil0" points="2304,1042.81 2316.66,1042.81 2326.15,1052.31 2326.15,1061.8 2318.24,1068.13 2308.75,1068.13 2300.84,1061.8 2299.25,1053.89 "/>
   <polygon class="fil0" points="1349.8,968.44 1362.46,970.02 1371.96,977.93 1373.54,987.43 1356.13,985.85 1348.22,990.59 1340.31,982.68 1341.89,973.19 "/>
   <polygon class="fil0" points="1811.87,473.14 1819.78,473.14 1826.11,477.89 1824.53,485.8 1813.45,492.13 1807.12,495.3 1797.63,495.3 1794.46,487.39 1800.79,479.47 "/>
   <polygon class="fil0" points="1707.43,982.68 1713.76,984.26 1720.09,990.59 1716.92,998.5 1731.17,1003.25 1734.33,1006.42 1732.75,1012.75 1718.51,1011.16 1713.76,1008 1712.18,1003.25 1704.27,998.5 1704.27,985.85 "/>
   <polygon class="fil0" points="473.14,852.92 484.22,854.51 492.13,864 492.13,873.49 490.55,875.08 481.06,875.08 468.4,865.58 466.81,857.67 468.4,854.51 "/>
   <polygon class="fil0" points="1905.23,843.43 1911.56,846.59 1922.64,860.83 1924.22,867.17 1927.38,867.16 1935.3,875.08 1935.3,879.82 1922.64,879.83 1917.89,875.08 1911.56,862.42 1905.23,856.09 1903.65,846.59 "/>
   <polygon class="fil0" points="932.04,564.92 939.96,566.51 944.7,571.25 941.54,579.17 930.46,587.08 919.38,588.66 917.8,580.75 920.97,579.17 925.71,569.67 "/>
   <polygon class="fil0" points="2440.09,748.48 2446.42,748.48 2452.75,764.31 2449.58,775.39 2438.5,773.8 2432.17,769.05 2436.92,751.65 "/>
   <polygon class="fil0" points="1277.01,981.1 1283.34,984.26 1291.25,990.59 1311.83,990.59 1313.41,993.76 1307.08,1000.09 1299.16,1001.67 1284.92,1001.67 1281.76,1000.09 1277.01,987.43 "/>
   <polygon class="fil0" points="2682.2,519.03 2688.53,520.62 2694.86,534.86 2691.69,542.77 2682.2,544.35 2675.87,539.6 2675.87,526.95 "/>
   <polygon class="fil0" points="242.11,435.16 254.77,435.16 262.68,443.08 261.1,449.41 238.95,449.41 232.62,446.24 235.78,438.33 "/>
   <polygon class="fil0" points="147.17,278.51 155.08,280.09 161.41,289.58 162.99,294.33 162.99,305.41 156.66,302.24 145.58,292.75 139.25,288 140.84,283.25 "/>
   <polygon class="fil0" points="561.76,384.53 572.84,387.69 577.59,392.44 576,405.1 574.42,408.26 566.51,406.68 561.76,401.93 558.59,394.02 560.18,386.11 "/>
   <polygon class="fil0" points="2191.65,538.02 2199.56,539.6 2205.89,545.94 2205.89,549.1 2196.39,552.26 2183.73,553.85 2177.41,550.68 2178.99,544.35 "/>
   <polygon class="fil0" points="2304,443.08 2319.82,450.99 2327.74,460.48 2329.32,466.81 2321.4,468.4 2311.91,460.49 2302.42,447.83 "/>
   <polygon class="fil0" points="1360.88,1107.69 1367.21,1109.28 1365.63,1126.68 1360.88,1128.26 1349.8,1121.93 1349.8,1115.6 "/>
   <polygon class="fil0" points="2158.42,1019.08 2164.75,1020.66 2166.33,1023.82 2166.33,1033.32 2161.58,1039.65 2153.67,1041.23 2150.51,1036.48 2156.84,1020.66 "/>
   <polygon class="fil0" points="2251.78,1071.3 2262.86,1072.88 2269.19,1080.79 2267.61,1087.12 2256.53,1085.54 2248.61,1077.63 "/>
   <polygon class="fil0" points="2699.6,560.18 2712.26,561.76 2715.43,564.92 2713.84,571.25 2698.02,574.42 2694.86,571.25 2694.86,563.34 "/>
   <polygon class="fil0" points="2242.29,985.85 2248.61,989.01 2250.2,996.92 2245.45,1003.25 2239.12,1004.84 2234.37,1001.67 2235.96,992.18 "/>
   <polygon class="fil0" points="1177.32,884.57 1183.65,886.16 1185.23,887.74 1185.23,897.23 1180.48,901.98 1172.57,901.98 1169.41,894.07 "/>
   <polygon class="fil0" points="2645.8,599.73 2653.71,601.32 2655.3,604.48 2655.3,618.73 2645.8,617.14 2642.64,610.81 2642.64,602.9 "/>
   <polygon class="fil0" points="2348.31,533.28 2351.47,533.28 2353.05,544.35 2346.72,550.68 2335.65,549.1 2337.23,542.77 "/>
   <polygon class="fil0" points="238.95,319.65 245.28,322.81 246.86,330.73 243.7,333.89 227.87,333.89 227.87,329.14 231.04,329.14 232.62,322.81 "/>
   <polygon class="fil0" points="557.01,365.54 566.51,365.54 574.42,375.03 572.84,379.78 563.34,379.78 555.43,371.87 "/>
   <polygon class="fil0" points="1935.3,897.23 1941.63,898.81 1949.54,908.31 1947.96,911.47 1935.3,911.47 1932.13,908.31 1932.13,900.4 "/>
   <polygon class="fil0" points="2039.74,238.95 2049.23,238.95 2050.81,246.86 2047.65,254.77 2041.32,253.19 2036.57,245.28 "/>
   <polygon class="fil0" points="1580.84,273.76 1588.75,275.34 1593.49,281.67 1593.49,289.58 1587.16,289.58 1580.84,281.67 "/>
   <polygon class="fil0" points="2177.41,422.51 2185.32,422.51 2186.9,433.58 2186.9,439.92 2180.57,438.33 2175.82,432 2175.82,424.09 "/>
   <polygon class="fil0" points="9.5,0 15.83,1.58 18.99,6.33 17.41,14.24 9.5,12.66 6.33,4.75 "/>
   <polygon class="fil0" points="1041.23,680.44 1044.4,682.02 "/>
   <polygon class="fil0" points="2226.46,284.84 2229.62,286.42 "/>
  </g>
 </g>
</svg>
